<?xml version="1.0" encoding="UTF-8" standalone="no"?>
<!-- Created with Inkscape (http://www.inkscape.org/) -->

<svg
   xmlns:dc="http://purl.org/dc/elements/1.1/"
   xmlns:cc="http://creativecommons.org/ns#"
   xmlns:rdf="http://www.w3.org/1999/02/22-rdf-syntax-ns#"
   xmlns:svg="http://www.w3.org/2000/svg"
   xmlns="http://www.w3.org/2000/svg"
   xmlns:sodipodi="http://sodipodi.sourceforge.net/DTD/sodipodi-0.dtd"
   xmlns:inkscape="http://www.inkscape.org/namespaces/inkscape"
   width="500"
   height="500"
   id="svg2"
   version="1.1"
   inkscape:version="0.48.5 r10040"
   sodipodi:docname="New document 1">
  <defs
     id="defs4">
    <inkscape:perspective
       sodipodi:type="inkscape:persp3d"
       inkscape:vp_x="0 : 250 : 1"
       inkscape:vp_y="0 : 1000 : 0"
       inkscape:vp_z="500 : 250 : 1"
       inkscape:persp3d-origin="250 : 166.66667 : 1"
       id="perspective4720" />
  </defs>
  <sodipodi:namedview
     id="base"
     pagecolor="#ffffff"
     bordercolor="#666666"
     borderopacity="1.0"
     inkscape:pageopacity="0.0"
     inkscape:pageshadow="2"
     inkscape:zoom="11.2"
     inkscape:cx="105.6132"
     inkscape:cy="455.55438"
     inkscape:document-units="px"
     inkscape:current-layer="layer1"
     showgrid="false"
     inkscape:snap-bbox="true"
     inkscape:snap-bbox-edge-midpoints="true"
     inkscape:snap-bbox-midpoints="true"
     inkscape:bbox-paths="true"
     inkscape:bbox-nodes="true"
     inkscape:object-paths="true"
     inkscape:snap-intersection-paths="true"
     inkscape:object-nodes="true"
     inkscape:snap-smooth-nodes="true"
     inkscape:snap-midpoints="true"
     inkscape:snap-object-midpoints="true"
     showguides="true"
     inkscape:guide-bbox="true"
     inkscape:snap-global="true"
     inkscape:snap-nodes="true"
     inkscape:window-width="1436"
     inkscape:window-height="861"
     inkscape:window-x="0"
     inkscape:window-y="18"
     inkscape:window-maximized="0" />
  <metadata
     id="metadata7">
    <rdf:RDF>
      <cc:Work
         rdf:about="">
        <dc:format>image/svg+xml</dc:format>
        <dc:type
           rdf:resource="http://purl.org/dc/dcmitype/StillImage" />
        <dc:title></dc:title>
      </cc:Work>
    </rdf:RDF>
  </metadata>
  <g
     inkscape:label="Layer 1"
     inkscape:groupmode="layer"
     id="layer1"
     transform="translate(0,-552.36218)">
    <path
       style="fill:#666666;stroke:none"
       d="m 82.332511,571.0191 12.90625,8.40625 0,11.875 -12.90625,8.375 37.812499,0 37.78125,0 -12.875,-8.375 0,-11.875 12.875,-8.40625 -37.78125,0 -37.812499,0 z m 37.812499,1.09375 c 7.56641,0 13.6875,2.96383 13.6875,6.625 0,3.66117 -6.12109,6.625 -13.6875,6.625 -7.56641,0 -13.71875,-2.96383 -13.71875,-6.625 0,-3.66117 6.15234,-6.625 13.71875,-6.625 z"
       id="rect4376-4"
       inkscape:connector-curvature="0" />
    <path
       inkscape:connector-curvature="0"
       style="fill:#666666;stroke:none"
       d="m 82.332512,599.67535 12.90625,8.40625 0,11.875 -12.90625,8.375 37.812498,0 37.78125,0 -12.875,-8.375 0,-11.875 12.875,-8.40625 -37.78125,0 -37.812498,0 z m 37.812498,1.09375 c 7.56641,0 13.6875,2.96383 13.6875,6.625 0,3.66117 -6.12109,6.625 -13.6875,6.625 -7.56641,0 -13.71875,-2.96383 -13.71875,-6.625 0,-3.66117 6.15234,-6.625 13.71875,-6.625 z"
       id="rect4376-4-8" />
    <path
       inkscape:connector-curvature="0"
       style="fill:#666666;stroke:none"
       d="m 82.332514,628.33844 12.90625,8.40625 0,11.875 -12.90625,8.375 37.812496,0 37.78125,0 -12.875,-8.375 0,-11.875 12.875,-8.40625 -37.78125,0 -37.812496,0 z m 37.812496,1.09375 c 7.56641,0 13.6875,2.96383 13.6875,6.625 0,3.66117 -6.12109,6.625 -13.6875,6.625 -7.56641,0 -13.71875,-2.96383 -13.71875,-6.625 0,-3.66117 6.15234,-6.625 13.71875,-6.625 z"
       id="rect4376-4-4" />
    <path
       inkscape:connector-curvature="0"
       style="fill:#666666;stroke:none"
       d="m 82.332508,657.01373 12.90625,8.40625 0,11.875 -12.90625,8.375 37.812502,0 37.78125,0 -12.875,-8.375 0,-11.875 12.875,-8.40625 -37.78125,0 -37.812502,0 z m 37.812502,1.09375 c 7.56641,0 13.6875,2.96383 13.6875,6.625 0,3.66117 -6.12109,6.625 -13.6875,6.625 -7.56641,0 -13.71875,-2.96383 -13.71875,-6.625 0,-3.66117 6.15234,-6.625 13.71875,-6.625 z"
       id="rect4376-4-0" />
    <path
       sodipodi:type="arc"
       style="fill:none;stroke:#000000;stroke-width:1px;stroke-linecap:butt;stroke-linejoin:miter;stroke-opacity:1"
       id="path3005"
       sodipodi:cx="265"
       sodipodi:cy="279.28571"
       sodipodi:rx="70.714287"
       sodipodi:ry="70.714287"
       d="m 335.71429,279.28571 a 70.714287,70.714287 0 1 1 -141.42858,0 70.714287,70.714287 0 1 1 141.42858,0 z"
       transform="translate(-15,523.07647)" />
    <g
       id="g3835"
       transform="translate(33.335034,-26.769043)"
       style="fill:none">
      <rect
         y="102.75751"
         x="32.956226"
         height="28.663084"
         width="107.7075"
         id="rect3779"
         style="fill:none;stroke:#000000"
         transform="translate(0,552.36218)" />
      <rect
         y="626.4566"
         x="32.95623"
         height="28.663084"
         width="107.7075"
         id="rect3779-4"
         style="fill:none;stroke:#000000" />
      <rect
         y="597.79352"
         x="32.95623"
         height="28.663084"
         width="107.7075"
         id="rect3779-4-9"
         style="fill:none;stroke:#000000" />
      <rect
         y="683.78278"
         x="32.956223"
         height="28.663084"
         width="107.7075"
         id="rect3779-0"
         style="fill:none;stroke:#000000" />
    </g>
    <g
       transform="matrix(1.6274363,0,0,1.0198413,-46.813691,20.590175)"
       id="g3954-7-3"
       style="fill:#0066ff">
      <rect
         y="573.92865"
         x="73.867409"
         height="15.909903"
         width="1.0101519"
         id="rect3901-07-9"
         style="fill:#0066ff;stroke:none" />
      <rect
         y="573.92865"
         x="78.34996"
         height="15.909903"
         width="1.0101519"
         id="rect3901-0-2-1"
         style="fill:#0066ff;stroke:none" />
      <rect
         y="573.92865"
         x="80.59124"
         height="15.909903"
         width="1.0101519"
         id="rect3901-9-5-3"
         style="fill:#0066ff;stroke:none" />
      <rect
         y="573.92865"
         x="76.108681"
         height="15.909903"
         width="1.0101519"
         id="rect3901-2-8-18"
         style="fill:#0066ff;stroke:none" />
      <rect
         y="573.92865"
         x="82.832512"
         height="15.909903"
         width="1.0101519"
         id="rect3901-5-4-2"
         style="fill:#0066ff;stroke:none" />
    </g>
    <g
       transform="matrix(1.6274363,0,0,1.0198413,-46.813691,-8.0729112)"
       id="g3954-7-1"
       style="fill:#0066ff">
      <rect
         y="573.92865"
         x="73.867409"
         height="15.909903"
         width="1.0101519"
         id="rect3901-07-90"
         style="fill:#0066ff;stroke:none" />
      <rect
         y="573.92865"
         x="78.34996"
         height="15.909903"
         width="1.0101519"
         id="rect3901-0-2-7"
         style="fill:#0066ff;stroke:none" />
      <rect
         y="573.92865"
         x="80.59124"
         height="15.909903"
         width="1.0101519"
         id="rect3901-9-5-8"
         style="fill:#0066ff;stroke:none" />
      <rect
         y="573.92865"
         x="76.108681"
         height="15.909903"
         width="1.0101519"
         id="rect3901-2-8-5"
         style="fill:#0066ff;stroke:none" />
      <rect
         y="573.92865"
         x="82.832512"
         height="15.909903"
         width="1.0101519"
         id="rect3901-5-4-3"
         style="fill:#0066ff;stroke:none" />
    </g>
    <g
       transform="matrix(1.6274363,0,0,1.0198413,-46.813692,49.253258)"
       id="g3954-7-10"
       style="fill:#0066ff">
      <rect
         y="573.92865"
         x="73.867409"
         height="15.909903"
         width="1.0101519"
         id="rect3901-07-2"
         style="fill:#0066ff;stroke:none" />
      <rect
         y="573.92865"
         x="78.34996"
         height="15.909903"
         width="1.0101519"
         id="rect3901-0-2-0"
         style="fill:#0066ff;stroke:none" />
      <rect
         y="573.92865"
         x="80.59124"
         height="15.909903"
         width="1.0101519"
         id="rect3901-9-5-7"
         style="fill:#0066ff;stroke:none" />
      <rect
         y="573.92865"
         x="76.108681"
         height="15.909903"
         width="1.0101519"
         id="rect3901-2-8-59"
         style="fill:#0066ff;stroke:none" />
      <rect
         y="573.92865"
         x="82.832512"
         height="15.909903"
         width="1.0101519"
         id="rect3901-5-4-9"
         style="fill:#0066ff;stroke:none" />
    </g>
    <g
       transform="matrix(1.6274363,0,0,1.0198413,-46.813691,77.916347)"
       id="g3954-7-15"
       style="fill:#0066ff">
      <rect
         y="573.92865"
         x="73.867409"
         height="15.909903"
         width="1.0101519"
         id="rect3901-07-22"
         style="fill:#0066ff;stroke:none" />
      <rect
         y="573.92865"
         x="78.34996"
         height="15.909903"
         width="1.0101519"
         id="rect3901-0-2-8"
         style="fill:#0066ff;stroke:none" />
      <rect
         y="573.92865"
         x="80.59124"
         height="15.909903"
         width="1.0101519"
         id="rect3901-9-5-5"
         style="fill:#0066ff;stroke:none" />
      <rect
         y="573.92865"
         x="76.108681"
         height="15.909903"
         width="1.0101519"
         id="rect3901-2-8-3"
         style="fill:#0066ff;stroke:none" />
      <rect
         y="573.92865"
         x="82.832512"
         height="15.909903"
         width="1.0101519"
         id="rect3901-5-4-6"
         style="fill:#0066ff;stroke:none" />
    </g>
    <g
       transform="matrix(1.6274363,0,0,1.0198413,33.097023,20.590175)"
       id="g3954-7-3-5"
       style="fill:#0066ff">
      <rect
         y="573.92865"
         x="73.867409"
         height="15.909903"
         width="1.0101519"
         id="rect3901-07-9-2"
         style="fill:#0066ff;stroke:none" />
      <rect
         y="573.92865"
         x="78.34996"
         height="15.909903"
         width="1.0101519"
         id="rect3901-0-2-1-9"
         style="fill:#0066ff;stroke:none" />
      <rect
         y="573.92865"
         x="80.59124"
         height="15.909903"
         width="1.0101519"
         id="rect3901-9-5-3-5"
         style="fill:#0066ff;stroke:none" />
      <rect
         y="573.92865"
         x="76.108681"
         height="15.909903"
         width="1.0101519"
         id="rect3901-2-8-18-3"
         style="fill:#0066ff;stroke:none" />
      <rect
         y="573.92865"
         x="82.832512"
         height="15.909903"
         width="1.0101519"
         id="rect3901-5-4-2-7"
         style="fill:#0066ff;stroke:none" />
    </g>
    <g
       transform="matrix(1.6274363,0,0,1.0198413,33.097023,-8.0729112)"
       id="g3954-7-1-4"
       style="fill:#0066ff">
      <rect
         y="573.92865"
         x="73.867409"
         height="15.909903"
         width="1.0101519"
         id="rect3901-07-90-9"
         style="fill:#0066ff;stroke:none" />
      <rect
         y="573.92865"
         x="78.34996"
         height="15.909903"
         width="1.0101519"
         id="rect3901-0-2-7-8"
         style="fill:#0066ff;stroke:none" />
      <rect
         y="573.92865"
         x="80.59124"
         height="15.909903"
         width="1.0101519"
         id="rect3901-9-5-8-3"
         style="fill:#0066ff;stroke:none" />
      <rect
         y="573.92865"
         x="76.108681"
         height="15.909903"
         width="1.0101519"
         id="rect3901-2-8-5-7"
         style="fill:#0066ff;stroke:none" />
      <rect
         y="573.92865"
         x="82.832512"
         height="15.909903"
         width="1.0101519"
         id="rect3901-5-4-3-7"
         style="fill:#0066ff;stroke:none" />
    </g>
    <g
       transform="matrix(1.6274363,0,0,1.0198413,33.097023,49.253258)"
       id="g3954-7-10-3"
       style="fill:#0066ff">
      <rect
         y="573.92865"
         x="73.867409"
         height="15.909903"
         width="1.0101519"
         id="rect3901-07-2-0"
         style="fill:#0066ff;stroke:none" />
      <rect
         y="573.92865"
         x="78.34996"
         height="15.909903"
         width="1.0101519"
         id="rect3901-0-2-0-8"
         style="fill:#0066ff;stroke:none" />
      <rect
         y="573.92865"
         x="80.59124"
         height="15.909903"
         width="1.0101519"
         id="rect3901-9-5-7-1"
         style="fill:#0066ff;stroke:none" />
      <rect
         y="573.92865"
         x="76.108681"
         height="15.909903"
         width="1.0101519"
         id="rect3901-2-8-59-4"
         style="fill:#0066ff;stroke:none" />
      <rect
         y="573.92865"
         x="82.832512"
         height="15.909903"
         width="1.0101519"
         id="rect3901-5-4-9-8"
         style="fill:#0066ff;stroke:none" />
    </g>
    <g
       transform="matrix(1.6274363,0,0,1.0198413,33.097023,77.916347)"
       id="g3954-7-15-3"
       style="fill:#0066ff">
      <rect
         y="573.92865"
         x="73.867409"
         height="15.909903"
         width="1.0101519"
         id="rect3901-07-22-7"
         style="fill:#0066ff;stroke:none" />
      <rect
         y="573.92865"
         x="78.34996"
         height="15.909903"
         width="1.0101519"
         id="rect3901-0-2-8-2"
         style="fill:#0066ff;stroke:none" />
      <rect
         y="573.92865"
         x="80.59124"
         height="15.909903"
         width="1.0101519"
         id="rect3901-9-5-5-2"
         style="fill:#0066ff;stroke:none" />
      <rect
         y="573.92865"
         x="76.108681"
         height="15.909903"
         width="1.0101519"
         id="rect3901-2-8-3-2"
         style="fill:#0066ff;stroke:none" />
      <rect
         y="573.92865"
         x="82.832512"
         height="15.909903"
         width="1.0101519"
         id="rect3901-5-4-6-7"
         style="fill:#0066ff;stroke:none" />
    </g>
  </g>
</svg>
